M48
;Layer_Color=9474304
;FILE_FORMAT=2:5
INCH
;TYPE=PLATED
T1F00S00C0.01181
T2F00S00C0.01500
T3F00S00C0.11811
T4F00S00C0.37402
;TYPE=NON_PLATED
T5F00S00C0.03902
%
T01
X0150445Y0097228
X0141193Y0123409
X0140602Y0129118
X0174657Y0126953
X0199854Y0130299
X0194933Y0139551
X0185878Y0153921
X0163437Y0150969
X0169933Y0102150
X0159500Y0158843
X0182728Y0157858
X0189618Y0191717
X0182925Y0210811
X0193752Y0230693
X0164028Y0251953
X0165405Y0259236
X0141390Y0264354
X0148083Y0242110
X0144539Y0233055
X0142374Y0226756
X0128004Y0222819
X0128988Y0214945
X0120721Y0208252
X0118949Y0203921
X0123083Y0201362
X0128201Y0200575
X0131547Y0191717
X0139618Y0175378
Y0170457
X0109500Y0223803
X0105760Y0233055
X0094933Y0232071
X0094539Y0223016
X0087256Y0230102
X0080563Y0239748
X0078398Y0249000
X0110090Y0249787
X0121705Y0237583
X0125051Y0240732
X0124854Y0283646
X0033122Y0260024
X0037256Y0249984
X0029185Y0240535
X0025445Y0230890
T02
X0147000Y0084000
X0154000
X0150500Y0091000
X0140000Y0098000
X0136500Y0105000
X0143500
X0140000Y0112000
X0136500Y0119000
X0143500
X0157500Y0091000
X0164500
X0171500
X0178500
X0185500
X0192500
X0199500
X0196000Y0084000
X0189000
X0182000
X0175000
X0168000
X0161000
X0203000
X0210000Y0098000
X0217000
X0220500Y0091000
Y0105000
X0213500Y0119000
X0206500
X0203000Y0126000
X0196000
X0210000
X0206500Y0147000
X0189000Y0140000
X0196000Y0168000
X0203000
X0192500Y0175000
X0189000Y0182000
X0192500Y0189000
X0189000Y0210000
X0185500Y0217000
X0189000Y0224000
X0210000Y0196000
X0171500Y0273000
X0133000Y0266000
X0126000
X0122500Y0259000
X0129500
X0108500
X0101500
X0094500
X0087500
X0088240Y0252937
X0073500Y0259000
X0066500
X0067965Y0253921
X0063000Y0252000
X0066500Y0245000
X0073500
X0070000Y0238000
X0063000
X0066500Y0231000
X0073500
X0080500
Y0217000
X0070000Y0224000
X0063000
X0021000
X0024500Y0217000
X0035000Y0210000
X0038500Y0203000
X0021000Y0238000
X0024500Y0245000
X0021000Y0252000
X0028000
X0024500Y0259000
X0021000Y0266000
X0028000
X0035000
X0031500Y0273000
X0024500
X0038500
X0035000Y0280000
X0042000
X0049000
X0056000
X0063000
X0073500Y0273000
X0070000Y0266000
X0098000
X0105000
T03
X0200248Y0178921
X0115602Y0263567
T04
X0164815Y0228134
T05
X0203870Y0203842
X0211862
X0207866Y0223843
M30
