G04 Layer_Color=16711935*
%FSAX25Y25*%
%MOIN*%
G70*
G01*
G75*
%ADD10C,0.01969*%
%ADD15C,0.01000*%
%ADD43C,0.00787*%
%ADD46C,0.00394*%
%ADD74C,0.00197*%
D10*
X0132700Y0244276D02*
G03*
X0132700Y0244276I-0000557J0000000D01*
G01*
X0172852Y0195620D02*
G03*
X0172852Y0195620I-0000557J0000000D01*
G01*
X0079545Y0261598D02*
G03*
X0079545Y0261598I-0000557J0000000D01*
G01*
X0162439Y0205624D02*
G03*
X0162439Y0205624I-0000787J0000000D01*
G01*
X0214953Y0227622D02*
G03*
X0214953Y0227622I-0000787J0000000D01*
G01*
X0136080Y0276756D02*
G03*
X0136080Y0276756I-0000557J0000000D01*
G01*
D15*
X0064421Y0210220D02*
Y0223213D01*
Y0210220D02*
X0070720D01*
Y0223213D01*
X0064421D02*
X0070720D01*
X0064421Y0222031D02*
X0070720D01*
D43*
X0153717Y0201169D02*
X0161651Y0209103D01*
X0152743Y0200195D02*
X0164435Y0188503D01*
X0161651Y0209103D02*
X0173344Y0197411D01*
X0164435Y0188503D02*
X0173344Y0197411D01*
X0152743Y0200195D02*
X0153717Y0201169D01*
X0156349Y0175377D02*
X0155562Y0176164D01*
X0153988D01*
X0153201Y0175377D01*
Y0174590D01*
X0153988Y0173802D01*
X0155562D01*
X0156349Y0173015D01*
Y0172228D01*
X0155562Y0171441D01*
X0153988D01*
X0153201Y0172228D01*
X0157924Y0171441D02*
X0159498D01*
X0158711D01*
Y0176164D01*
X0157924Y0175377D01*
X0111861Y0232466D02*
X0112648Y0233253D01*
Y0234827D01*
X0111861Y0235614D01*
X0111074D01*
X0110287Y0234827D01*
Y0233253D01*
X0109500Y0232466D01*
X0108712D01*
X0107925Y0233253D01*
Y0234827D01*
X0108712Y0235614D01*
X0107925Y0227743D02*
Y0230891D01*
X0111074Y0227743D01*
X0111861D01*
X0112648Y0228530D01*
Y0230104D01*
X0111861Y0230891D01*
X0131193Y0241518D02*
Y0237582D01*
X0131980Y0236795D01*
X0133554D01*
X0134342Y0237582D01*
Y0241518D01*
X0135916Y0236795D02*
X0137490D01*
X0136703D01*
Y0241518D01*
X0135916Y0240731D01*
X0175053Y0194669D02*
X0178988D01*
X0179776Y0195456D01*
Y0197031D01*
X0178988Y0197818D01*
X0175053D01*
X0179776Y0202541D02*
Y0199392D01*
X0176627Y0202541D01*
X0175840D01*
X0175053Y0201754D01*
Y0200179D01*
X0175840Y0199392D01*
X0171782Y0164586D02*
X0174565Y0161803D01*
Y0160690D01*
X0173451Y0159577D01*
X0172338D01*
X0169555Y0162360D01*
X0166216Y0159020D02*
X0168442Y0161247D01*
X0170112Y0159577D01*
X0168442Y0159020D01*
X0167885Y0158464D01*
Y0157351D01*
X0168999Y0156237D01*
X0170112D01*
X0171225Y0157351D01*
Y0158464D01*
X0187059Y0095457D02*
Y0100180D01*
X0184698D01*
X0183910Y0099392D01*
Y0097818D01*
X0184698Y0097031D01*
X0187059D01*
X0179975Y0095457D02*
Y0100180D01*
X0182336Y0097818D01*
X0179188D01*
X0032138Y0233449D02*
X0036861D01*
Y0235810D01*
X0036073Y0236597D01*
X0034499D01*
X0033712Y0235810D01*
Y0233449D01*
X0036073Y0238172D02*
X0036861Y0238959D01*
Y0240533D01*
X0036073Y0241320D01*
X0035286D01*
X0034499Y0240533D01*
Y0239746D01*
Y0240533D01*
X0033712Y0241320D01*
X0032925D01*
X0032138Y0240533D01*
Y0238959D01*
X0032925Y0238172D01*
X0078988Y0263962D02*
Y0267898D01*
X0079775Y0268685D01*
X0081350D01*
X0082137Y0267898D01*
Y0263962D01*
X0083711Y0264749D02*
X0084498Y0263962D01*
X0086072D01*
X0086860Y0264749D01*
Y0265536D01*
X0086072Y0266324D01*
X0085285D01*
X0086072D01*
X0086860Y0267111D01*
Y0267898D01*
X0086072Y0268685D01*
X0084498D01*
X0083711Y0267898D01*
X0170140Y0197131D02*
X0169213Y0196203D01*
X0165502D01*
X0165502Y0199914D01*
X0166430Y0200842D01*
X0165502Y0196203D02*
X0162719Y0193420D01*
X0159008Y0197131D02*
X0157153Y0198986D01*
X0158081Y0198059D01*
X0163647Y0203625D01*
X0163647Y0201769D01*
X0210228Y0222898D02*
X0205505D01*
Y0220536D01*
X0206293Y0219749D01*
X0207867D01*
X0208654Y0220536D01*
Y0222898D01*
X0210228Y0215026D02*
Y0218175D01*
X0207080Y0215026D01*
X0206293D01*
X0205505Y0215813D01*
Y0217388D01*
X0206293Y0218175D01*
D46*
X0164284Y0179063D02*
G03*
X0164284Y0179063I-0001969J0000000D01*
G01*
X0131350Y0215641D02*
G03*
X0131350Y0215641I-0001969J0000000D01*
G01*
X0142571Y0164748D02*
Y0182465D01*
Y0164748D02*
X0156744D01*
Y0161598D02*
Y0164748D01*
Y0161598D02*
X0167768D01*
Y0164748D01*
X0181941D01*
Y0182465D01*
X0142571D02*
X0181941D01*
X0118949Y0206874D02*
Y0246244D01*
X0101232Y0206874D02*
X0118949D01*
X0101232D02*
Y0221047D01*
X0098083D02*
X0101232D01*
X0098083D02*
Y0232071D01*
X0101232D01*
Y0246244D01*
X0118949D01*
X0162315Y0184074D02*
X0195165Y0151225D01*
X0141158Y0162917D02*
X0174007Y0130067D01*
X0141158Y0162917D02*
X0162315Y0184074D01*
X0174007Y0130067D02*
X0195165Y0151225D01*
X0100248Y0216126D02*
Y0222031D01*
X0111272D01*
Y0216126D02*
Y0222031D01*
X0100248Y0216126D02*
X0111272D01*
X0129382Y0220653D02*
X0148869Y0201165D01*
X0109895D02*
X0129382Y0181678D01*
X0109895Y0201165D02*
X0129382Y0220653D01*
Y0181678D02*
X0148869Y0201165D01*
X0099264Y0232858D02*
X0105169D01*
X0099264D02*
Y0243882D01*
X0105169D01*
Y0232858D02*
Y0243882D01*
X0114028Y0232858D02*
X0119933D01*
X0114028D02*
Y0243882D01*
X0119933D01*
Y0232858D02*
Y0243882D01*
X0210484Y0143882D02*
X0216390D01*
Y0132858D02*
Y0143882D01*
X0210484Y0132858D02*
X0216390D01*
X0210484D02*
Y0143882D01*
X0197098D02*
X0203004D01*
Y0132858D02*
Y0143882D01*
X0197098Y0132858D02*
X0203004D01*
X0197098D02*
Y0143882D01*
X0091783Y0232858D02*
X0097689D01*
X0091783D02*
Y0243882D01*
X0097689D01*
Y0232858D02*
Y0243882D01*
X0084303Y0232858D02*
X0090209D01*
X0084303D02*
Y0243882D01*
X0090209D01*
Y0232858D02*
Y0243882D01*
X0133516Y0079315D02*
Y0119472D01*
Y0079315D02*
X0216587D01*
X0133516Y0119472D02*
X0216587D01*
Y0079315D02*
Y0119472D01*
X0015996Y0286992D02*
X0056154D01*
X0015996Y0203921D02*
Y0286992D01*
X0056154Y0203921D02*
Y0286992D01*
X0015996Y0203921D02*
X0056154D01*
X0178436Y0182581D02*
X0182611Y0186757D01*
X0170641Y0190376D02*
X0178436Y0182581D01*
X0170641Y0190376D02*
X0174817Y0194552D01*
X0182611Y0186757D01*
X0178436Y0211678D02*
X0182611Y0207502D01*
X0174817Y0199707D02*
X0182611Y0207502D01*
X0170641Y0203883D02*
X0174817Y0199707D01*
X0170641Y0203883D02*
X0178436Y0211678D01*
X0084223Y0203959D02*
X0088399Y0208135D01*
X0096194Y0200340D01*
X0092018Y0196164D02*
X0096194Y0200340D01*
X0084223Y0203959D02*
X0092018Y0196164D01*
X0133554Y0165456D02*
X0137729Y0169631D01*
X0125759Y0173250D02*
X0133554Y0165456D01*
X0125759Y0173250D02*
X0129935Y0177426D01*
X0137729Y0169631D01*
X0131861Y0229080D02*
X0136037Y0224904D01*
X0131861Y0229080D02*
X0139656Y0236875D01*
X0143832Y0232699D01*
X0136037Y0224904D02*
X0143832Y0232699D01*
X0106547Y0243882D02*
X0112453D01*
Y0232858D02*
Y0243882D01*
X0106547Y0232858D02*
X0112453D01*
X0106547D02*
Y0243882D01*
X0180877Y0194041D02*
X0185053Y0189865D01*
X0180877Y0194041D02*
X0188672Y0201836D01*
X0192848Y0197660D01*
X0185053Y0189865D02*
X0192848Y0197660D01*
X0175759Y0198962D02*
X0179935Y0194786D01*
X0175759Y0198962D02*
X0183554Y0206757D01*
X0187729Y0202581D01*
X0179935Y0194786D02*
X0187729Y0202581D01*
X0203791Y0132858D02*
X0209697D01*
X0203791D02*
Y0143882D01*
X0209697D01*
Y0132858D02*
Y0143882D01*
X0122492Y0252543D02*
X0128398D01*
Y0241520D02*
Y0252543D01*
X0122492Y0241520D02*
X0128398D01*
X0122492D02*
Y0252543D01*
X0106350Y0245654D02*
Y0251559D01*
X0095327Y0245654D02*
X0106350D01*
X0095327D02*
Y0251559D01*
X0106350D01*
X0089421Y0274394D02*
Y0280299D01*
X0078398Y0274394D02*
X0089421D01*
X0078398D02*
Y0280299D01*
X0089421D01*
Y0252150D02*
Y0258055D01*
X0078398Y0252150D02*
X0089421D01*
X0078398D02*
Y0258055D01*
X0089421D01*
X0198024Y0196126D02*
Y0231559D01*
Y0196126D02*
X0217709D01*
Y0231559D01*
X0198024D02*
X0217709D01*
X0167807Y0249590D02*
Y0280693D01*
X0129618Y0249590D02*
X0167807D01*
X0129618D02*
Y0280693D01*
X0167807D01*
X0071902Y0211205D02*
Y0222228D01*
Y0211205D02*
X0077807D01*
Y0222228D01*
X0071902D02*
X0077807D01*
X0101429Y0220654D02*
Y0218292D01*
X0102610D01*
X0103003Y0218686D01*
Y0219473D01*
X0102610Y0219866D01*
X0101429D01*
X0102216D02*
X0103003Y0220654D01*
X0103791Y0218292D02*
X0105365D01*
Y0218686D01*
X0103791Y0220260D01*
Y0220654D01*
X0131888Y0205897D02*
X0133511Y0204274D01*
Y0203625D01*
X0132862Y0202975D01*
X0132213D01*
X0130589Y0204599D01*
X0130914Y0201027D02*
X0128966Y0202975D01*
X0130914D01*
X0129615Y0201676D01*
X0100642Y0234039D02*
X0103003D01*
Y0235220D01*
X0102610Y0235614D01*
X0101822D01*
X0101429Y0235220D01*
Y0234039D01*
Y0234826D02*
X0100642Y0235614D01*
X0103003Y0237975D02*
X0102610Y0237188D01*
X0101822Y0236401D01*
X0101035D01*
X0100642Y0236794D01*
Y0237581D01*
X0101035Y0237975D01*
X0101429D01*
X0101822Y0237581D01*
Y0236401D01*
X0115405Y0234039D02*
X0117767D01*
Y0235220D01*
X0117373Y0235614D01*
X0116586D01*
X0116193Y0235220D01*
Y0234039D01*
Y0234826D02*
X0115405Y0235614D01*
X0117767Y0237975D02*
Y0236401D01*
X0116586D01*
X0116980Y0237188D01*
Y0237581D01*
X0116586Y0237975D01*
X0115799D01*
X0115405Y0237581D01*
Y0236794D01*
X0115799Y0236401D01*
X0215012Y0142701D02*
X0212650D01*
Y0141520D01*
X0213044Y0141127D01*
X0213831D01*
X0214225Y0141520D01*
Y0142701D01*
Y0141914D02*
X0215012Y0141127D01*
Y0139159D02*
X0212650D01*
X0213831Y0140339D01*
Y0138765D01*
X0201626Y0142701D02*
X0199265D01*
Y0141520D01*
X0199658Y0141127D01*
X0200445D01*
X0200839Y0141520D01*
Y0142701D01*
Y0141914D02*
X0201626Y0141127D01*
X0199658Y0140339D02*
X0199265Y0139946D01*
Y0139159D01*
X0199658Y0138765D01*
X0200052D01*
X0200445Y0139159D01*
Y0139552D01*
Y0139159D01*
X0200839Y0138765D01*
X0201232D01*
X0201626Y0139159D01*
Y0139946D01*
X0201232Y0140339D01*
X0093161Y0234039D02*
X0095523D01*
Y0235220D01*
X0095129Y0235614D01*
X0094342D01*
X0093949Y0235220D01*
Y0234039D01*
Y0234826D02*
X0093161Y0235614D01*
Y0237975D02*
Y0236401D01*
X0094736Y0237975D01*
X0095129D01*
X0095523Y0237581D01*
Y0236794D01*
X0095129Y0236401D01*
X0085681Y0234039D02*
X0088042D01*
Y0235220D01*
X0087649Y0235614D01*
X0086862D01*
X0086468Y0235220D01*
Y0234039D01*
Y0234826D02*
X0085681Y0235614D01*
Y0236401D02*
Y0237188D01*
Y0236794D01*
X0088042D01*
X0087649Y0236401D01*
X0178853Y0186896D02*
X0179410Y0186896D01*
X0179966Y0186339D01*
Y0185783D01*
X0178853Y0184669D01*
X0178296D01*
X0177740Y0185226D01*
Y0185783D01*
X0176905Y0186061D02*
X0176348Y0186618D01*
X0176627Y0186339D01*
X0178296Y0188009D01*
Y0187452D01*
X0176905Y0188844D02*
X0176905Y0189400D01*
X0176348Y0189957D01*
X0175792D01*
X0175513Y0189679D01*
Y0189122D01*
X0175792Y0188844D01*
X0175513Y0189122D01*
X0174957D01*
X0174679Y0188844D01*
Y0188287D01*
X0175235Y0187731D01*
X0175792D01*
X0178297Y0207920D02*
X0178297Y0208476D01*
X0178854Y0209033D01*
X0179410D01*
X0180524Y0207920D01*
Y0207363D01*
X0179967Y0206807D01*
X0179410D01*
X0179132Y0205972D02*
X0178575Y0205415D01*
X0178854Y0205694D01*
X0177184Y0207363D01*
X0177741D01*
X0176627Y0203467D02*
X0177741Y0204580D01*
X0175514D01*
X0175236Y0204859D01*
Y0205415D01*
X0175792Y0205972D01*
X0176349Y0205972D01*
X0087982Y0203821D02*
X0087425Y0203821D01*
X0086868Y0204377D01*
Y0204934D01*
X0087982Y0206047D01*
X0088538D01*
X0089095Y0205490D01*
Y0204934D01*
X0089930Y0204656D02*
X0090486Y0204099D01*
X0090208Y0204377D01*
X0088538Y0202708D01*
Y0203264D01*
X0091321D02*
X0091878Y0202708D01*
X0091600Y0202986D01*
X0089930Y0201316D01*
X0089930Y0201873D01*
X0133971Y0169770D02*
X0134528Y0169770D01*
X0135084Y0169213D01*
Y0168657D01*
X0133971Y0167543D01*
X0133414D01*
X0132858Y0168100D01*
Y0168657D01*
X0132023Y0168935D02*
X0131466Y0169492D01*
X0131745Y0169213D01*
X0133414Y0170883D01*
Y0170326D01*
X0132023Y0171718D02*
X0132023Y0172274D01*
X0131466Y0172831D01*
X0130910D01*
X0129797Y0171718D01*
Y0171161D01*
X0130353Y0170605D01*
X0130910D01*
X0132023Y0171718D01*
X0136175Y0228663D02*
X0136175Y0228106D01*
X0135619Y0227550D01*
X0135062D01*
X0133949Y0228663D01*
Y0229219D01*
X0134505Y0229776D01*
X0135062D01*
X0135619Y0230332D02*
Y0230889D01*
X0136175Y0231446D01*
X0136732D01*
X0137845Y0230332D01*
X0137845Y0229776D01*
X0137288Y0229219D01*
X0136732D01*
X0136454Y0229498D01*
Y0230054D01*
X0137288Y0230889D01*
X0109107Y0241126D02*
X0108713Y0241520D01*
Y0242307D01*
X0109107Y0242701D01*
X0110681D01*
X0111075Y0242307D01*
Y0241520D01*
X0110681Y0241126D01*
X0108713Y0238765D02*
X0109107Y0239552D01*
X0109894Y0240339D01*
X0110681D01*
X0111075Y0239946D01*
Y0239159D01*
X0110681Y0238765D01*
X0110288D01*
X0109894Y0239159D01*
Y0240339D01*
X0185191Y0193623D02*
X0185191Y0193067D01*
X0184634Y0192510D01*
X0184078D01*
X0182965Y0193623D01*
Y0194180D01*
X0183521Y0194737D01*
X0184078D01*
X0187139Y0195015D02*
X0186026Y0193902D01*
X0185191Y0194737D01*
X0186026Y0195015D01*
X0186304Y0195293D01*
Y0195850D01*
X0185748Y0196406D01*
X0185191D01*
X0184634Y0195850D01*
Y0195293D01*
X0180073Y0198545D02*
X0180073Y0197988D01*
X0179516Y0197431D01*
X0178960D01*
X0177847Y0198545D01*
Y0199101D01*
X0178403Y0199658D01*
X0178960D01*
X0180073Y0201328D02*
X0181743Y0199658D01*
X0180073D01*
X0181186Y0200771D01*
X0207137Y0135614D02*
X0207531Y0135220D01*
Y0134433D01*
X0207137Y0134039D01*
X0205563D01*
X0205169Y0134433D01*
Y0135220D01*
X0205563Y0135614D01*
X0207137Y0136401D02*
X0207531Y0136794D01*
Y0137582D01*
X0207137Y0137975D01*
X0206744D01*
X0206350Y0137582D01*
Y0137188D01*
Y0137582D01*
X0205956Y0137975D01*
X0205563D01*
X0205169Y0137582D01*
Y0136794D01*
X0205563Y0136401D01*
X0125052Y0249788D02*
X0124658Y0250181D01*
Y0250969D01*
X0125052Y0251362D01*
X0126626D01*
X0127020Y0250969D01*
Y0250181D01*
X0126626Y0249788D01*
X0127020Y0247426D02*
Y0249001D01*
X0125445Y0247426D01*
X0125052D01*
X0124658Y0247820D01*
Y0248607D01*
X0125052Y0249001D01*
X0103595Y0248999D02*
X0103989Y0249393D01*
X0104776D01*
X0105169Y0248999D01*
Y0247425D01*
X0104776Y0247031D01*
X0103989D01*
X0103595Y0247425D01*
X0102808Y0247031D02*
X0102021D01*
X0102414D01*
Y0249393D01*
X0102808Y0248999D01*
X0086666Y0277740D02*
X0087059Y0278133D01*
X0087847D01*
X0088240Y0277740D01*
Y0276165D01*
X0087847Y0275772D01*
X0087059D01*
X0086666Y0276165D01*
X0085879Y0278133D02*
X0084304D01*
Y0277740D01*
X0085879Y0276165D01*
Y0275772D01*
X0086666Y0255495D02*
X0087059Y0255889D01*
X0087847D01*
X0088240Y0255495D01*
Y0253921D01*
X0087847Y0253527D01*
X0087059D01*
X0086666Y0253921D01*
X0085879Y0255495D02*
X0085485Y0255889D01*
X0084698D01*
X0084304Y0255495D01*
Y0255102D01*
X0084698Y0254708D01*
X0084304Y0254315D01*
Y0253921D01*
X0084698Y0253527D01*
X0085485D01*
X0085879Y0253921D01*
Y0254315D01*
X0085485Y0254708D01*
X0085879Y0255102D01*
Y0255495D01*
X0085485Y0254708D02*
X0084698D01*
X0152322Y0267372D02*
X0153044Y0268093D01*
X0154487D01*
X0155209Y0267372D01*
Y0264485D01*
X0154487Y0263764D01*
X0153044D01*
X0152322Y0264485D01*
X0148715Y0268093D02*
X0150158D01*
X0150879Y0267372D01*
Y0264485D01*
X0150158Y0263764D01*
X0148715D01*
X0147993Y0264485D01*
Y0267372D01*
X0148715Y0268093D01*
X0146550Y0263764D02*
Y0268093D01*
X0143664Y0263764D01*
Y0268093D01*
X0142221Y0263764D02*
X0140778D01*
X0141499D01*
Y0268093D01*
X0142221Y0267372D01*
X0066391Y0220457D02*
X0068752D01*
Y0219276D01*
X0068358Y0218882D01*
X0066784D01*
X0066391Y0219276D01*
Y0220457D01*
X0068752Y0218095D02*
Y0217308D01*
Y0217702D01*
X0066391D01*
X0066784Y0218095D01*
X0076429Y0221047D02*
X0074068D01*
Y0219866D01*
X0074461Y0219473D01*
X0075248D01*
X0075642Y0219866D01*
Y0221047D01*
Y0220260D02*
X0076429Y0219473D01*
X0074461Y0218686D02*
X0074068Y0218292D01*
Y0217505D01*
X0074461Y0217111D01*
X0074855D01*
X0075248Y0217505D01*
X0075642Y0217111D01*
X0076035D01*
X0076429Y0217505D01*
Y0218292D01*
X0076035Y0218686D01*
X0075642D01*
X0075248Y0218292D01*
X0074855Y0218686D01*
X0074461D01*
X0075248Y0218292D02*
Y0217505D01*
D74*
X0129520Y0233252D02*
X0144677D01*
X0129520Y0246638D02*
X0144677D01*
Y0233252D02*
Y0246638D01*
X0129520Y0233252D02*
Y0246638D01*
X0183319Y0192996D02*
Y0208154D01*
X0169933Y0192996D02*
Y0208154D01*
X0183319D01*
X0169933Y0192996D02*
X0183319D01*
X0076528Y0259433D02*
Y0273213D01*
X0091685Y0259433D02*
Y0273213D01*
X0076528Y0259433D02*
X0091685D01*
X0076528Y0273213D02*
X0091685D01*
M02*
