G04 Layer_Color=128*
%FSAX25Y25*%
%MOIN*%
G70*
G01*
G75*
%ADD22C,0.05906*%
G04:AMPARAMS|DCode=23|XSize=27.56mil|YSize=98.43mil|CornerRadius=0mil|HoleSize=0mil|Usage=FLASHONLY|Rotation=135.000|XOffset=0mil|YOffset=0mil|HoleType=Round|Shape=Rectangle|*
%AMROTATEDRECTD23*
4,1,4,0.04454,0.02506,-0.02506,-0.04454,-0.04454,-0.02506,0.02506,0.04454,0.04454,0.02506,0.0*
%
%ADD23ROTATEDRECTD23*%

%ADD24R,0.02362X0.03543*%
G04:AMPARAMS|DCode=25|XSize=21.65mil|YSize=59.06mil|CornerRadius=0mil|HoleSize=0mil|Usage=FLASHONLY|Rotation=135.000|XOffset=0mil|YOffset=0mil|HoleType=Round|Shape=Rectangle|*
%AMROTATEDRECTD25*
4,1,4,0.02854,0.01322,-0.01322,-0.02854,-0.02854,-0.01322,0.01322,0.02854,0.02854,0.01322,0.0*
%
%ADD25ROTATEDRECTD25*%

G04:AMPARAMS|DCode=26|XSize=21.65mil|YSize=59.06mil|CornerRadius=0mil|HoleSize=0mil|Usage=FLASHONLY|Rotation=225.000|XOffset=0mil|YOffset=0mil|HoleType=Round|Shape=Rectangle|*
%AMROTATEDRECTD26*
4,1,4,-0.01322,0.02854,0.02854,-0.01322,0.01322,-0.02854,-0.02854,0.01322,-0.01322,0.02854,0.0*
%
%ADD26ROTATEDRECTD26*%

%ADD27R,0.03543X0.02362*%
%ADD28R,0.05118X0.17716*%
%ADD29R,0.07087X0.15354*%
%ADD30R,0.17716X0.05118*%
%ADD31R,0.15354X0.07087*%
G04:AMPARAMS|DCode=32|XSize=23.62mil|YSize=35.43mil|CornerRadius=0mil|HoleSize=0mil|Usage=FLASHONLY|Rotation=135.000|XOffset=0mil|YOffset=0mil|HoleType=Round|Shape=Rectangle|*
%AMROTATEDRECTD32*
4,1,4,0.02088,0.00418,-0.00418,-0.02088,-0.02088,-0.00418,0.00418,0.02088,0.02088,0.00418,0.0*
%
%ADD32ROTATEDRECTD32*%

G04:AMPARAMS|DCode=33|XSize=23.62mil|YSize=35.43mil|CornerRadius=0mil|HoleSize=0mil|Usage=FLASHONLY|Rotation=225.000|XOffset=0mil|YOffset=0mil|HoleType=Round|Shape=Rectangle|*
%AMROTATEDRECTD33*
4,1,4,-0.00418,0.02088,0.02088,-0.00418,0.00418,-0.02088,-0.02088,0.00418,-0.00418,0.02088,0.0*
%
%ADD33ROTATEDRECTD33*%

%ADD34R,0.03937X0.02362*%
G04:AMPARAMS|DCode=35|XSize=55.12mil|YSize=43.31mil|CornerRadius=0mil|HoleSize=0mil|Usage=FLASHONLY|Rotation=135.000|XOffset=0mil|YOffset=0mil|HoleType=Round|Shape=Rectangle|*
%AMROTATEDRECTD35*
4,1,4,0.03480,-0.00418,0.00418,-0.03480,-0.03480,0.00418,-0.00418,0.03480,0.03480,-0.00418,0.0*
%
%ADD35ROTATEDRECTD35*%

%ADD37R,0.05906X0.11811*%
%ADD38R,0.03150X0.03150*%
D22*
X0071508Y0250181D02*
D03*
D23*
X0167243Y0184436D02*
D03*
X0170778Y0180901D02*
D03*
X0174314Y0177365D02*
D03*
X0177849Y0173830D02*
D03*
X0181385Y0170294D02*
D03*
X0184920Y0166759D02*
D03*
X0188456Y0163223D02*
D03*
X0191991Y0159688D02*
D03*
X0195527Y0156152D02*
D03*
X0140796Y0157990D02*
D03*
X0144331Y0154454D02*
D03*
X0147867Y0150918D02*
D03*
X0151402Y0147383D02*
D03*
X0154938Y0143847D02*
D03*
X0158474Y0140312D02*
D03*
X0162009Y0136776D02*
D03*
X0165545Y0133241D02*
D03*
X0169080Y0129705D02*
D03*
D24*
X0108713Y0219079D02*
D03*
X0102807D02*
D03*
X0097886Y0248606D02*
D03*
X0103791D02*
D03*
X0080957Y0277346D02*
D03*
X0086862D02*
D03*
X0080957Y0255102D02*
D03*
X0086862D02*
D03*
D25*
X0133419Y0220792D02*
D03*
X0135646Y0218565D02*
D03*
X0137873Y0216337D02*
D03*
X0140100Y0214110D02*
D03*
X0142327Y0211883D02*
D03*
X0144554Y0209656D02*
D03*
X0146781Y0207429D02*
D03*
X0149008Y0205202D02*
D03*
X0125345Y0181539D02*
D03*
X0123118Y0183766D02*
D03*
X0120891Y0185993D02*
D03*
X0118664Y0188220D02*
D03*
X0116437Y0190447D02*
D03*
X0114210Y0192675D02*
D03*
X0111983Y0194902D02*
D03*
X0109756Y0197129D02*
D03*
D26*
X0149008D02*
D03*
X0146781Y0194902D02*
D03*
X0144554Y0192675D02*
D03*
X0142327Y0190447D02*
D03*
X0140100Y0188220D02*
D03*
X0137873Y0185993D02*
D03*
X0135646Y0183766D02*
D03*
X0133419Y0181539D02*
D03*
X0109756Y0205202D02*
D03*
X0111983Y0207429D02*
D03*
X0114210Y0209656D02*
D03*
X0116437Y0211883D02*
D03*
X0118664Y0214110D02*
D03*
X0120891Y0216337D02*
D03*
X0123118Y0218565D02*
D03*
X0125345Y0220792D02*
D03*
D27*
X0102216Y0241323D02*
D03*
Y0235417D02*
D03*
X0116980Y0241323D02*
D03*
Y0235417D02*
D03*
X0213437Y0135417D02*
D03*
Y0141323D02*
D03*
X0200051Y0135417D02*
D03*
Y0141323D02*
D03*
X0094736Y0241323D02*
D03*
Y0235417D02*
D03*
X0087256Y0241323D02*
D03*
Y0235417D02*
D03*
X0109500Y0235417D02*
D03*
Y0241323D02*
D03*
X0206744Y0141323D02*
D03*
Y0135417D02*
D03*
X0125445Y0244079D02*
D03*
Y0249984D02*
D03*
X0074854Y0219669D02*
D03*
Y0213764D02*
D03*
D28*
X0150445Y0113961D02*
D03*
X0160287D02*
D03*
X0170130D02*
D03*
X0179972D02*
D03*
X0189815D02*
D03*
X0199657D02*
D03*
D29*
X0137846Y0087189D02*
D03*
X0212256D02*
D03*
D30*
X0050642Y0270063D02*
D03*
Y0260220D02*
D03*
Y0250378D02*
D03*
Y0240535D02*
D03*
Y0230693D02*
D03*
Y0220850D02*
D03*
D31*
X0023870Y0282661D02*
D03*
Y0208252D02*
D03*
D32*
X0174538Y0190655D02*
D03*
X0178714Y0186479D02*
D03*
X0092297Y0200062D02*
D03*
X0088121Y0204238D02*
D03*
X0129656Y0173529D02*
D03*
X0133832Y0169353D02*
D03*
D33*
X0174538Y0203605D02*
D03*
X0178714Y0207781D02*
D03*
X0139934Y0232978D02*
D03*
X0135758Y0228802D02*
D03*
X0188950Y0197938D02*
D03*
X0184774Y0193762D02*
D03*
X0183832Y0202859D02*
D03*
X0179656Y0198684D02*
D03*
D34*
X0079382Y0262583D02*
D03*
Y0270063D02*
D03*
X0088831Y0266323D02*
D03*
D35*
X0157754Y0199638D02*
D03*
X0168333Y0197968D02*
D03*
X0163879Y0193514D02*
D03*
X0162208Y0204093D02*
D03*
D37*
X0151429Y0274000D02*
D03*
X0161429D02*
D03*
X0136429Y0256283D02*
D03*
X0146429D02*
D03*
X0156429D02*
D03*
X0141429Y0274000D02*
D03*
D38*
X0067571Y0212976D02*
D03*
Y0219276D02*
D03*
M02*
