G04 Layer_Color=32896*
%FSAX25Y25*%
%MOIN*%
G70*
G01*
G75*
%ADD10C,0.01969*%
%ADD15C,0.01000*%
%ADD41C,0.05906*%
%ADD42C,0.00984*%
%ADD43C,0.00787*%
%ADD71C,0.02362*%
%ADD72R,0.32677X0.14370*%
D10*
X0135617Y0279118D02*
G03*
X0135617Y0279118I-0000880J0000000D01*
G01*
D15*
X0198024Y0196126D02*
X0217709D01*
X0198024D02*
Y0231559D01*
X0217709Y0196126D02*
Y0231559D01*
X0198024D02*
X0217709D01*
D41*
X0125051Y0263567D02*
G03*
X0125051Y0263567I-0009449J0000000D01*
G01*
X0209697Y0178921D02*
G03*
X0209697Y0178921I-0009449J0000000D01*
G01*
D42*
X0165229Y0186942D02*
G03*
X0165229Y0186942I-0000492J0000000D01*
G01*
X0131614Y0223088D02*
G03*
X0131614Y0223088I-0000492J0000000D01*
G01*
X0079874Y0259236D02*
G03*
X0079874Y0259236I-0000492J0000000D01*
G01*
X0166783Y0207465D02*
G03*
X0166783Y0207465I-0000492J0000000D01*
G01*
D43*
X0161202Y0182961D02*
X0194052Y0150111D01*
X0142271Y0164031D02*
X0175121Y0131181D01*
X0142271Y0164031D02*
X0161202Y0182961D01*
X0175121Y0131181D02*
X0194052Y0150111D01*
X0100260Y0216079D02*
Y0222079D01*
Y0216079D02*
X0111260D01*
Y0222079D01*
X0100260D02*
X0111260D01*
X0129382Y0218425D02*
X0146642Y0201165D01*
X0112122D02*
X0129382Y0183905D01*
X0112122Y0201165D02*
X0129382Y0218425D01*
Y0183905D02*
X0146642Y0201165D01*
X0099217Y0232870D02*
X0105217D01*
Y0243870D01*
X0099217D02*
X0105217D01*
X0099217Y0232870D02*
Y0243870D01*
X0113980Y0232870D02*
X0119980D01*
Y0243870D01*
X0113980D02*
X0119980D01*
X0113980Y0232870D02*
Y0243870D01*
X0210437Y0143870D02*
X0216437D01*
X0210437Y0132870D02*
Y0143870D01*
Y0132870D02*
X0216437D01*
Y0143870D01*
X0197051D02*
X0203051D01*
X0197051Y0132870D02*
Y0143870D01*
Y0132870D02*
X0203051D01*
Y0143870D01*
X0091736Y0232870D02*
X0097736D01*
Y0243870D01*
X0091736D02*
X0097736D01*
X0091736Y0232870D02*
Y0243870D01*
X0084256Y0232870D02*
X0090256D01*
Y0243870D01*
X0084256D02*
X0090256D01*
X0084256Y0232870D02*
Y0243870D01*
X0135878Y0095850D02*
Y0119472D01*
X0146902D01*
X0203201D02*
X0214618D01*
Y0095850D02*
Y0119472D01*
X0032531Y0284630D02*
X0056154D01*
Y0273606D02*
Y0284630D01*
Y0205890D02*
Y0217307D01*
X0032531Y0205890D02*
X0056154D01*
X0178394Y0182556D02*
X0182636Y0186799D01*
X0174858Y0194577D02*
X0182636Y0186799D01*
X0170616Y0190335D02*
X0174858Y0194577D01*
X0170616Y0190335D02*
X0178394Y0182556D01*
Y0211703D02*
X0182636Y0207461D01*
X0170616Y0203925D02*
X0178394Y0211703D01*
X0170616Y0203925D02*
X0174858Y0199682D01*
X0182636Y0207461D01*
X0084198Y0203917D02*
X0088441Y0208160D01*
X0084198Y0203917D02*
X0091976Y0196139D01*
X0096219Y0200382D01*
X0088441Y0208160D02*
X0096219Y0200382D01*
X0133512Y0165430D02*
X0137754Y0169673D01*
X0129976Y0177451D02*
X0137754Y0169673D01*
X0125734Y0173209D02*
X0129976Y0177451D01*
X0125734Y0173209D02*
X0133512Y0165430D01*
X0131836Y0229122D02*
X0136079Y0224879D01*
X0143857Y0232658D01*
X0139614Y0236900D02*
X0143857Y0232658D01*
X0131836Y0229122D02*
X0139614Y0236900D01*
X0106500Y0243870D02*
X0112500D01*
X0106500Y0232870D02*
Y0243870D01*
Y0232870D02*
X0112500D01*
Y0243870D01*
X0180852Y0194083D02*
X0185094Y0189840D01*
X0192873Y0197618D01*
X0188630Y0201861D02*
X0192873Y0197618D01*
X0180852Y0194083D02*
X0188630Y0201861D01*
X0175734Y0199004D02*
X0179976Y0194761D01*
X0187754Y0202539D01*
X0183512Y0206782D02*
X0187754Y0202539D01*
X0175734Y0199004D02*
X0183512Y0206782D01*
X0203744Y0132870D02*
X0209744D01*
Y0143870D01*
X0203744D02*
X0209744D01*
X0203744Y0132870D02*
Y0143870D01*
X0122445Y0252532D02*
X0128445D01*
X0122445Y0241531D02*
Y0252532D01*
Y0241531D02*
X0128445D01*
Y0252532D01*
X0106339Y0245606D02*
Y0251606D01*
X0095339D02*
X0106339D01*
X0095339Y0245606D02*
Y0251606D01*
Y0245606D02*
X0106339D01*
X0089409Y0274346D02*
Y0280346D01*
X0078409D02*
X0089409D01*
X0078409Y0274346D02*
Y0280346D01*
Y0274346D02*
X0089409D01*
Y0252102D02*
Y0258102D01*
X0078409D02*
X0089409D01*
X0078409Y0252102D02*
Y0258102D01*
Y0252102D02*
X0089409D01*
X0082925Y0260417D02*
X0086862D01*
Y0263567D01*
X0082925Y0272228D02*
X0086862D01*
Y0269079D02*
Y0272228D01*
X0164435Y0188503D02*
X0173344Y0197411D01*
X0152743Y0200195D02*
X0164435Y0188503D01*
X0152743Y0200195D02*
X0161651Y0209103D01*
X0173344Y0197411D01*
X0167020Y0255102D02*
Y0275181D01*
X0165445D02*
X0167020D01*
X0130012D02*
X0137492D01*
X0160721Y0255102D02*
X0167020D01*
X0130012D02*
X0132374D01*
X0130012D02*
Y0260811D01*
Y0269276D02*
Y0275181D01*
Y0260811D02*
X0131980D01*
X0130012Y0269276D02*
X0131980D01*
Y0260811D02*
Y0269276D01*
X0064571Y0223126D02*
X0070571D01*
X0064571Y0222126D02*
X0070571D01*
X0064571Y0210126D02*
Y0223126D01*
Y0210126D02*
X0070571D01*
Y0223126D01*
X0077854Y0211216D02*
Y0222217D01*
X0071854Y0211216D02*
X0077854D01*
X0071854D02*
Y0222217D01*
X0077854D01*
X0068949Y0245128D02*
X0068424Y0245653D01*
X0067374D01*
X0066850Y0245128D01*
Y0244603D01*
X0067374Y0244078D01*
X0067899D01*
X0067374D01*
X0066850Y0243553D01*
Y0243029D01*
X0067374Y0242504D01*
X0068424D01*
X0068949Y0243029D01*
X0065800Y0245653D02*
Y0243553D01*
X0064751Y0242504D01*
X0063701Y0243553D01*
Y0245653D01*
X0062652Y0245128D02*
X0062127Y0245653D01*
X0061077D01*
X0060553Y0245128D01*
Y0244603D01*
X0061077Y0244078D01*
X0061602D01*
X0061077D01*
X0060553Y0243553D01*
Y0243029D01*
X0061077Y0242504D01*
X0062127D01*
X0062652Y0243029D01*
X0069146Y0257660D02*
X0067047D01*
X0068096D01*
Y0254512D01*
X0065997D02*
Y0257660D01*
X0064423D01*
X0063898Y0257136D01*
Y0256086D01*
X0064423Y0255561D01*
X0065997D01*
X0062849Y0254512D02*
X0061799D01*
X0062324D01*
Y0257660D01*
X0062849Y0257136D01*
X0194675Y0148864D02*
X0196530Y0147009D01*
Y0146267D01*
X0195788Y0145525D01*
X0195046Y0145525D01*
X0193191Y0147380D01*
X0190964Y0145153D02*
X0192449Y0146638D01*
X0193562Y0145525D01*
X0192449Y0145153D01*
X0192078Y0144782D01*
Y0144040D01*
X0192820Y0143298D01*
X0193562Y0143298D01*
X0194304Y0144040D01*
Y0144782D01*
X0098083Y0217701D02*
Y0220849D01*
X0096508D01*
X0095984Y0220325D01*
Y0219275D01*
X0096508Y0218750D01*
X0098083D01*
X0097033D02*
X0095984Y0217701D01*
X0094934Y0220849D02*
X0092835D01*
Y0220325D01*
X0094934Y0218226D01*
Y0217701D01*
X0106486Y0213825D02*
X0108342Y0211969D01*
Y0211227D01*
X0107599Y0210485D01*
X0106857Y0210485D01*
X0105002Y0212340D01*
X0105373Y0208259D02*
X0103147Y0210485D01*
X0105373Y0210485D01*
X0103889Y0209001D01*
X0103791Y0231283D02*
X0100643D01*
Y0229709D01*
X0101168Y0229184D01*
X0102217D01*
X0102742Y0229709D01*
Y0231283D01*
Y0230234D02*
X0103791Y0229184D01*
X0100643Y0226036D02*
X0101168Y0227085D01*
X0102217Y0228135D01*
X0103267D01*
X0103791Y0227610D01*
Y0226560D01*
X0103267Y0226036D01*
X0102742D01*
X0102217Y0226560D01*
Y0228135D01*
X0118555Y0231480D02*
X0115407D01*
Y0229906D01*
X0115931Y0229381D01*
X0116981D01*
X0117506Y0229906D01*
Y0231480D01*
Y0230431D02*
X0118555Y0229381D01*
X0115407Y0226233D02*
Y0228332D01*
X0116981D01*
X0116456Y0227282D01*
Y0226757D01*
X0116981Y0226233D01*
X0118030D01*
X0118555Y0226757D01*
Y0227807D01*
X0118030Y0228332D01*
X0215209Y0131480D02*
X0212060D01*
Y0129906D01*
X0212585Y0129381D01*
X0213634D01*
X0214159Y0129906D01*
Y0131480D01*
Y0130431D02*
X0215209Y0129381D01*
Y0126757D02*
X0212060D01*
X0213634Y0128332D01*
Y0126233D01*
X0201232Y0131087D02*
X0198084D01*
Y0129512D01*
X0198608Y0128988D01*
X0199658D01*
X0200183Y0129512D01*
Y0131087D01*
Y0130037D02*
X0201232Y0128988D01*
X0198608Y0127938D02*
X0198084Y0127413D01*
Y0126364D01*
X0198608Y0125839D01*
X0199133D01*
X0199658Y0126364D01*
Y0126889D01*
Y0126364D01*
X0200183Y0125839D01*
X0200708D01*
X0201232Y0126364D01*
Y0127413D01*
X0200708Y0127938D01*
X0096311Y0230890D02*
X0093162D01*
Y0229315D01*
X0093687Y0228791D01*
X0094737D01*
X0095262Y0229315D01*
Y0230890D01*
Y0229840D02*
X0096311Y0228791D01*
Y0225642D02*
Y0227741D01*
X0094212Y0225642D01*
X0093687D01*
X0093162Y0226167D01*
Y0227216D01*
X0093687Y0227741D01*
X0088634Y0230693D02*
X0085485D01*
Y0229119D01*
X0086010Y0228594D01*
X0087059D01*
X0087584Y0229119D01*
Y0230693D01*
Y0229643D02*
X0088634Y0228594D01*
Y0227544D02*
Y0226495D01*
Y0227020D01*
X0085485D01*
X0086010Y0227544D01*
X0222098Y0115732D02*
Y0118881D01*
X0220524D01*
X0219999Y0118356D01*
Y0117306D01*
X0220524Y0116782D01*
X0222098D01*
X0217375Y0115732D02*
Y0118881D01*
X0218950Y0117306D01*
X0216851D01*
X0055957Y0200181D02*
Y0203330D01*
X0054382D01*
X0053858Y0202805D01*
Y0201755D01*
X0054382Y0201231D01*
X0055957D01*
X0052808Y0202805D02*
X0052283Y0203330D01*
X0051234D01*
X0050709Y0202805D01*
Y0202280D01*
X0051234Y0201755D01*
X0051759D01*
X0051234D01*
X0050709Y0201231D01*
Y0200706D01*
X0051234Y0200181D01*
X0052283D01*
X0052808Y0200706D01*
X0185688Y0185788D02*
Y0186530D01*
X0186430Y0187273D01*
X0187172Y0187273D01*
X0188656Y0185788D01*
Y0185046D01*
X0187914Y0184304D01*
X0187172Y0184304D01*
X0186801Y0183191D02*
X0186059Y0182449D01*
X0186430Y0182820D01*
X0184204Y0185046D01*
X0184946Y0185046D01*
X0183090Y0183191D02*
X0182348Y0183191D01*
X0181606Y0182449D01*
Y0181707D01*
X0181977Y0181336D01*
X0182719D01*
X0183090Y0181707D01*
X0182719Y0181336D01*
Y0180593D01*
X0183090Y0180222D01*
X0183833Y0180222D01*
X0184575Y0180965D01*
Y0181707D01*
X0185491Y0215513D02*
Y0216255D01*
X0186233Y0216997D01*
X0186975Y0216997D01*
X0188460Y0215513D01*
Y0214771D01*
X0187717Y0214029D01*
X0186975Y0214029D01*
X0186604Y0212915D02*
X0185862Y0212173D01*
X0186233Y0212544D01*
X0184007Y0214771D01*
X0184749Y0214771D01*
X0183265Y0209576D02*
X0184749Y0211060D01*
X0181780D01*
X0181409Y0211431D01*
Y0212173D01*
X0182151Y0212915D01*
X0182894Y0212915D01*
X0085491Y0211182D02*
Y0211924D01*
X0086233Y0212666D01*
X0086975Y0212666D01*
X0088460Y0211182D01*
Y0210440D01*
X0087717Y0209698D01*
X0086975Y0209698D01*
X0086604Y0208585D02*
X0085862Y0207842D01*
X0086233Y0208213D01*
X0084007Y0210440D01*
X0084749Y0210440D01*
Y0206729D02*
X0084007Y0205987D01*
X0084378Y0206358D01*
X0082152Y0208585D01*
X0082894Y0208585D01*
X0138641Y0166694D02*
Y0167436D01*
X0139383Y0168178D01*
X0140125Y0168178D01*
X0141609Y0166694D01*
Y0165952D01*
X0140867Y0165210D01*
X0140125Y0165210D01*
X0139754Y0164096D02*
X0139012Y0163354D01*
X0139383Y0163725D01*
X0137156Y0165952D01*
X0137899Y0165952D01*
X0136043Y0164096D02*
X0135301Y0164096D01*
X0134559Y0163354D01*
Y0162612D01*
X0136043Y0161128D01*
X0136785Y0161128D01*
X0137528Y0161870D01*
Y0162612D01*
X0136043Y0164096D01*
X0144152Y0239528D02*
Y0240271D01*
X0144895Y0241013D01*
X0145637Y0241013D01*
X0147121Y0239528D01*
Y0238786D01*
X0146379Y0238044D01*
X0145637Y0238044D01*
X0144895Y0237302D02*
Y0236560D01*
X0144152Y0235818D01*
X0143410Y0235818D01*
X0141926Y0237302D01*
Y0238044D01*
X0142668Y0238786D01*
X0143410Y0238786D01*
X0143781Y0238415D01*
X0143781Y0237673D01*
X0142668Y0236560D01*
X0108451Y0229184D02*
X0107926Y0229709D01*
Y0230759D01*
X0108451Y0231283D01*
X0110550D01*
X0111075Y0230759D01*
Y0229709D01*
X0110550Y0229184D01*
X0107926Y0226036D02*
X0108451Y0227085D01*
X0109501Y0228135D01*
X0110550D01*
X0111075Y0227610D01*
Y0226560D01*
X0110550Y0226036D01*
X0110025D01*
X0109501Y0226560D01*
Y0228135D01*
X0193562Y0203899D02*
Y0204641D01*
X0194304Y0205383D01*
X0195046Y0205383D01*
X0196530Y0203899D01*
Y0203156D01*
X0195788Y0202414D01*
X0195046Y0202414D01*
X0190964Y0202043D02*
X0192449Y0203527D01*
X0193562Y0202414D01*
X0192449Y0202043D01*
X0192078Y0201672D01*
Y0200930D01*
X0192820Y0200188D01*
X0193562Y0200188D01*
X0194304Y0200930D01*
Y0201672D01*
X0188247Y0208623D02*
Y0209365D01*
X0188989Y0210107D01*
X0189731Y0210107D01*
X0191216Y0208623D01*
Y0207881D01*
X0190473Y0207139D01*
X0189731Y0207139D01*
X0188247Y0204912D02*
X0186021Y0207139D01*
X0188247Y0207139D01*
X0186763Y0205655D01*
X0205498Y0129381D02*
X0204973Y0129906D01*
Y0130956D01*
X0205498Y0131480D01*
X0207597D01*
X0208122Y0130956D01*
Y0129906D01*
X0207597Y0129381D01*
X0205498Y0128332D02*
X0204973Y0127807D01*
Y0126757D01*
X0205498Y0126233D01*
X0206023D01*
X0206548Y0126757D01*
Y0127282D01*
Y0126757D01*
X0207072Y0126233D01*
X0207597D01*
X0208122Y0126757D01*
Y0127807D01*
X0207597Y0128332D01*
X0124396Y0237452D02*
X0123871Y0237977D01*
Y0239026D01*
X0124396Y0239551D01*
X0126495D01*
X0127020Y0239026D01*
Y0237977D01*
X0126495Y0237452D01*
X0127020Y0234303D02*
Y0236403D01*
X0124921Y0234303D01*
X0124396D01*
X0123871Y0234828D01*
Y0235878D01*
X0124396Y0236403D01*
X0110550Y0249655D02*
X0111075Y0250180D01*
X0112125D01*
X0112650Y0249655D01*
Y0247556D01*
X0112125Y0247031D01*
X0111075D01*
X0110550Y0247556D01*
X0109501Y0247031D02*
X0108451D01*
X0108976D01*
Y0250180D01*
X0109501Y0249655D01*
X0074133Y0278986D02*
X0074658Y0279511D01*
X0075708D01*
X0076232Y0278986D01*
Y0276887D01*
X0075708Y0276362D01*
X0074658D01*
X0074133Y0276887D01*
X0073084Y0279511D02*
X0070985D01*
Y0278986D01*
X0073084Y0276887D01*
Y0276362D01*
X0074724Y0257136D02*
X0075248Y0257660D01*
X0076298D01*
X0076823Y0257136D01*
Y0255036D01*
X0076298Y0254512D01*
X0075248D01*
X0074724Y0255036D01*
X0073674Y0257136D02*
X0073150Y0257660D01*
X0072100D01*
X0071575Y0257136D01*
Y0256611D01*
X0072100Y0256086D01*
X0071575Y0255561D01*
Y0255036D01*
X0072100Y0254512D01*
X0073150D01*
X0073674Y0255036D01*
Y0255561D01*
X0073150Y0256086D01*
X0073674Y0256611D01*
Y0257136D01*
X0073150Y0256086D02*
X0072100D01*
X0075642Y0266716D02*
Y0264092D01*
X0075117Y0263567D01*
X0074067D01*
X0073543Y0264092D01*
Y0266716D01*
X0072493Y0266191D02*
X0071968Y0266716D01*
X0070919D01*
X0070394Y0266191D01*
Y0265666D01*
X0070919Y0265141D01*
X0071444D01*
X0070919D01*
X0070394Y0264616D01*
Y0264092D01*
X0070919Y0263567D01*
X0071968D01*
X0072493Y0264092D01*
X0159242Y0190400D02*
X0159613Y0190029D01*
Y0188544D01*
X0158129D01*
X0157758Y0188915D01*
X0159613Y0188544D02*
X0160726Y0187431D01*
X0159242Y0185947D02*
X0158500Y0185205D01*
X0158871Y0185576D01*
X0156645Y0187802D01*
X0157387Y0187802D01*
X0217965Y0191520D02*
Y0194668D01*
X0216390D01*
X0215865Y0194143D01*
Y0193094D01*
X0216390Y0192569D01*
X0217965D01*
X0212717Y0191520D02*
X0214816D01*
X0212717Y0193619D01*
Y0194143D01*
X0213242Y0194668D01*
X0214291D01*
X0214816Y0194143D01*
X0176889Y0262451D02*
X0177414Y0262975D01*
X0178463D01*
X0178988Y0262451D01*
Y0260351D01*
X0178463Y0259827D01*
X0177414D01*
X0176889Y0260351D01*
X0174265Y0262975D02*
X0175315D01*
X0175840Y0262451D01*
Y0260351D01*
X0175315Y0259827D01*
X0174265D01*
X0173740Y0260351D01*
Y0262451D01*
X0174265Y0262975D01*
X0172691Y0259827D02*
Y0262975D01*
X0170592Y0259827D01*
Y0262975D01*
X0169542Y0259827D02*
X0168493D01*
X0169018D01*
Y0262975D01*
X0169542Y0262451D01*
X0066194Y0208449D02*
X0069342D01*
Y0206874D01*
X0068818Y0206350D01*
X0066719D01*
X0066194Y0206874D01*
Y0208449D01*
X0069342Y0205300D02*
Y0204251D01*
Y0204775D01*
X0066194D01*
X0066719Y0205300D01*
X0076626Y0209236D02*
X0073477D01*
Y0207662D01*
X0074002Y0207137D01*
X0075052D01*
X0075576Y0207662D01*
Y0209236D01*
Y0208187D02*
X0076626Y0207137D01*
X0074002Y0206088D02*
X0073477Y0205563D01*
Y0204513D01*
X0074002Y0203989D01*
X0074527D01*
X0075052Y0204513D01*
X0075576Y0203989D01*
X0076101D01*
X0076626Y0204513D01*
Y0205563D01*
X0076101Y0206088D01*
X0075576D01*
X0075052Y0205563D01*
X0074527Y0206088D01*
X0074002D01*
X0075052Y0205563D02*
Y0204513D01*
D71*
X0162383Y0177393D02*
G03*
X0162383Y0177393I-0001181J0000000D01*
G01*
X0130563Y0212858D02*
G03*
X0130563Y0212858I-0001181J0000000D01*
G01*
D72*
X0107138Y0278823D02*
D03*
M02*
