G04 Layer_Color=65535*
%FSAX25Y25*%
%MOIN*%
G70*
G01*
G75*
%ADD15C,0.01000*%
%ADD38C,0.01181*%
%ADD40C,0.00984*%
%ADD41C,0.00100*%
%ADD42C,0.00787*%
%ADD43C,0.01575*%
%ADD44R,0.34449X0.09646*%
D15*
X0118949Y0229709D02*
Y0246244D01*
X0101232D02*
X0118949D01*
X0101232Y0232071D02*
Y0246244D01*
X0098083Y0232071D02*
X0101232D01*
X0098083Y0221047D02*
Y0232071D01*
Y0221047D02*
X0101232D01*
Y0206874D02*
Y0221047D01*
Y0206874D02*
X0101626D01*
X0118949D01*
Y0223016D01*
Y0229906D01*
X0102512Y0223114D02*
Y0230004D01*
X0158811Y0166027D02*
X0165701D01*
X0158909Y0182465D02*
X0165799D01*
X0181941D01*
Y0165142D02*
Y0182465D01*
Y0164748D02*
Y0165142D01*
X0167768Y0164748D02*
X0181941D01*
X0167768Y0161598D02*
Y0164748D01*
X0156744Y0161598D02*
X0167768D01*
X0156744D02*
Y0164748D01*
X0142571D02*
X0156744D01*
X0142571D02*
Y0182465D01*
X0159106D01*
D38*
X0146703Y0189943D02*
X0145720Y0190927D01*
X0143752D01*
X0142768Y0189943D01*
Y0188959D01*
X0143752Y0187975D01*
X0145720D01*
X0146703Y0186992D01*
Y0186007D01*
X0145720Y0185024D01*
X0143752D01*
X0142768Y0186007D01*
X0148671Y0185024D02*
X0150639D01*
X0149655D01*
Y0190927D01*
X0148671Y0189943D01*
X0125837Y0212778D02*
X0124853Y0213762D01*
X0122886D01*
X0121902Y0212778D01*
Y0211794D01*
X0122886Y0210810D01*
X0124853D01*
X0125837Y0209826D01*
Y0208842D01*
X0124853Y0207858D01*
X0122886D01*
X0121902Y0208842D01*
X0131741Y0207858D02*
X0127805D01*
X0131741Y0211794D01*
Y0212778D01*
X0130757Y0213762D01*
X0128789D01*
X0127805Y0212778D01*
X0133319Y0231872D02*
Y0226952D01*
X0134303Y0225969D01*
X0136271D01*
X0137255Y0226952D01*
Y0231872D01*
X0139223Y0225969D02*
X0141190D01*
X0140206D01*
Y0231872D01*
X0139223Y0230888D01*
X0171902Y0191715D02*
Y0186795D01*
X0172886Y0185811D01*
X0174853D01*
X0175837Y0186795D01*
Y0191715D01*
X0181741Y0185811D02*
X0177805D01*
X0181741Y0189747D01*
Y0190731D01*
X0180757Y0191715D01*
X0178789D01*
X0177805Y0190731D01*
D40*
X0170130Y0195850D02*
G03*
X0170130Y0195850I-0000492J0000000D01*
G01*
X0132866Y0246933D02*
G03*
X0132866Y0246933I-0000492J0000000D01*
G01*
D41*
X0145849Y0278692D02*
X0145949D01*
X0144649Y0278592D02*
X0144749D01*
X0144849D02*
X0146949D01*
X0147049D02*
X0147149D01*
X0143649Y0278492D02*
X0143749D01*
X0143949D02*
X0147849D01*
X0147949D02*
X0148049D01*
X0143249Y0278392D02*
X0148549D01*
X0142849Y0278292D02*
X0148849D01*
X0148949D02*
X0149049D01*
X0142449Y0278192D02*
X0149349D01*
X0141949Y0278092D02*
X0142049D01*
X0142149D02*
X0149749D01*
X0141749Y0277992D02*
X0150049D01*
X0141449Y0277892D02*
X0150249D01*
X0141049Y0277792D02*
X0141149D01*
X0141249D02*
X0150649D01*
X0140949Y0277692D02*
X0150949D01*
X0140649Y0277592D02*
X0151149D01*
X0140449Y0277492D02*
X0151349D01*
X0140249Y0277392D02*
X0151549D01*
X0139949Y0277292D02*
X0151849D01*
X0139749Y0277192D02*
X0151949D01*
X0139549Y0277092D02*
X0152149D01*
X0139449Y0276992D02*
X0152349D01*
X0139249Y0276892D02*
X0152649D01*
X0139049Y0276792D02*
X0152749D01*
X0138949Y0276692D02*
X0152849D01*
X0138749Y0276592D02*
X0153049D01*
X0138549Y0276492D02*
X0153249D01*
X0138449Y0276392D02*
X0153349D01*
X0138349Y0276292D02*
X0153549D01*
X0138149Y0276192D02*
X0153649D01*
X0138049Y0276092D02*
X0153749D01*
X0137849Y0275992D02*
X0153949D01*
X0137749Y0275892D02*
X0154049D01*
X0137549Y0275792D02*
X0154149D01*
X0137549Y0275692D02*
X0154349D01*
X0137449Y0275592D02*
X0154449D01*
X0137249Y0275492D02*
X0154549D01*
X0137049Y0275392D02*
X0154649D01*
X0137049Y0275292D02*
X0154749D01*
X0136949Y0275192D02*
X0154949D01*
X0136849Y0275092D02*
X0154949D01*
X0136649Y0274992D02*
X0155049D01*
X0136549Y0274892D02*
X0155249D01*
X0136549Y0274792D02*
X0155249D01*
X0136349Y0274692D02*
X0155449D01*
X0136349Y0274592D02*
X0155549D01*
X0136149Y0274492D02*
X0155549D01*
X0136049Y0274392D02*
X0155749D01*
X0136049Y0274292D02*
X0155749D01*
X0135949Y0274192D02*
X0155849D01*
X0135849Y0274092D02*
X0155949D01*
X0135749Y0273992D02*
X0156049D01*
X0135749Y0273892D02*
X0156149D01*
X0135549Y0273792D02*
X0156249D01*
X0135449Y0273692D02*
X0156349D01*
X0135449Y0273592D02*
X0156349D01*
X0135249Y0273492D02*
X0156449D01*
X0135249Y0273392D02*
X0156549D01*
X0135249Y0273292D02*
X0156549D01*
X0135049Y0273192D02*
X0156649D01*
X0135049Y0273092D02*
X0156849D01*
X0135049Y0272992D02*
X0156849D01*
X0134849Y0272892D02*
X0156849D01*
X0134849Y0272792D02*
X0156949D01*
X0134749Y0272692D02*
X0157049D01*
X0134649Y0272592D02*
X0157149D01*
X0134649Y0272492D02*
X0157149D01*
X0134549Y0272392D02*
X0157249D01*
X0134549Y0272292D02*
X0157249D01*
X0134449Y0272192D02*
X0141049D01*
X0141149D02*
X0141249D01*
X0141349D02*
X0141449D01*
X0141549D02*
X0141649D01*
X0141949D02*
X0142049D01*
X0142149D02*
X0142249D01*
X0142549D02*
X0142649D01*
X0142749D02*
X0142849D01*
X0143149D02*
X0143249D01*
X0143349D02*
X0148649D01*
X0148749D02*
X0148849D01*
X0148949D02*
X0149149D01*
X0149249D02*
X0149349D01*
X0149549D02*
X0149649D01*
X0149749D02*
X0149949D01*
X0150149D02*
X0150249D01*
X0150349D02*
X0150749D01*
X0150849D02*
X0151049D01*
X0151149D02*
X0151249D01*
X0151349D02*
X0157349D01*
X0134349Y0272092D02*
X0140749D01*
X0143449D02*
X0148449D01*
X0151449D02*
X0157449D01*
X0134249Y0271992D02*
X0140749D01*
X0143549D02*
X0148449D01*
X0151449D02*
X0157449D01*
X0134249Y0271892D02*
X0140649D01*
X0143549D02*
X0148249D01*
X0151449D02*
X0157549D01*
X0134249Y0271792D02*
X0140649D01*
X0143549D02*
X0148149D01*
X0151349D02*
X0157549D01*
X0134149Y0271692D02*
X0140749D01*
X0143549D02*
X0148249D01*
X0151249D02*
X0157649D01*
X0134149Y0271592D02*
X0140649D01*
X0143549D02*
X0148149D01*
X0151249D02*
X0157749D01*
X0134049Y0271492D02*
X0140749D01*
X0143549D02*
X0148049D01*
X0151149D02*
X0157749D01*
X0133949Y0271392D02*
X0140649D01*
X0143549D02*
X0148049D01*
X0151149D02*
X0157749D01*
X0133949Y0271292D02*
X0140649D01*
X0143549D02*
X0147849D01*
X0151049D02*
X0157849D01*
X0133949Y0271192D02*
X0140649D01*
X0143549D02*
X0147849D01*
X0151049D02*
X0157949D01*
X0133849Y0271092D02*
X0140649D01*
X0143549D02*
X0147849D01*
X0150849D02*
X0157949D01*
X0133749Y0270992D02*
X0140749D01*
X0143549D02*
X0147749D01*
X0150849D02*
X0157949D01*
X0133749Y0270892D02*
X0140649D01*
X0143549D02*
X0147749D01*
X0150749D02*
X0158049D01*
X0133749Y0270792D02*
X0140649D01*
X0143549D02*
X0147549D01*
X0150649D02*
X0158149D01*
X0133649Y0270692D02*
X0140649D01*
X0143549D02*
X0147449D01*
X0147549D02*
X0147649D01*
X0150749D02*
X0158149D01*
X0133649Y0270592D02*
X0140749D01*
X0143549D02*
X0147549D01*
X0150549D02*
X0158149D01*
X0133549Y0270492D02*
X0140649D01*
X0143549D02*
X0147449D01*
X0150449D02*
X0158249D01*
X0133549Y0270392D02*
X0140649D01*
X0143549D02*
X0147349D01*
X0150349D02*
X0158249D01*
X0133449Y0270292D02*
X0140649D01*
X0143549D02*
X0147349D01*
X0150449D02*
X0158349D01*
X0133449Y0270192D02*
X0140749D01*
X0143549D02*
X0147249D01*
X0150349D02*
X0158349D01*
X0133449Y0270092D02*
X0140649D01*
X0143549D02*
X0147149D01*
X0150249D02*
X0158349D01*
X0133449Y0269992D02*
X0140749D01*
X0143549D02*
X0147149D01*
X0150149D02*
X0158349D01*
X0133349Y0269892D02*
X0140649D01*
X0143549D02*
X0147049D01*
X0150149D02*
X0158449D01*
X0133349Y0269792D02*
X0140649D01*
X0143549D02*
X0146949D01*
X0150049D02*
X0158449D01*
X0133249Y0269692D02*
X0140749D01*
X0143549D02*
X0146949D01*
X0149949D02*
X0158549D01*
X0133249Y0269592D02*
X0140649D01*
X0143549D02*
X0146749D01*
X0146849D02*
X0146949D01*
X0149949D02*
X0158549D01*
X0133149Y0269492D02*
X0140649D01*
X0143549D02*
X0146849D01*
X0149849D02*
X0158549D01*
X0133249Y0269392D02*
X0140749D01*
X0143549D02*
X0146749D01*
X0149749D02*
X0158649D01*
X0133149Y0269292D02*
X0140649D01*
X0143549D02*
X0146649D01*
X0149749D02*
X0158649D01*
X0133049Y0269192D02*
X0140649D01*
X0143549D02*
X0146649D01*
X0149649D02*
X0158649D01*
X0133149Y0269092D02*
X0140649D01*
X0143549D02*
X0146549D01*
X0149549D02*
X0158749D01*
X0133049Y0268992D02*
X0140749D01*
X0143549D02*
X0146449D01*
X0149549D02*
X0158749D01*
X0133049Y0268892D02*
X0140649D01*
X0143549D02*
X0146449D01*
X0149449D02*
X0158749D01*
X0133049Y0268792D02*
X0140649D01*
X0143549D02*
X0146349D01*
X0149449D02*
X0158749D01*
X0132949Y0268692D02*
X0140649D01*
X0143549D02*
X0146249D01*
X0149249D02*
X0158849D01*
X0132949Y0268592D02*
X0140749D01*
X0143549D02*
X0146249D01*
X0149249D02*
X0158849D01*
X0132949Y0268492D02*
X0140649D01*
X0143549D02*
X0146149D01*
X0149249D02*
X0158849D01*
X0132949Y0268392D02*
X0140749D01*
X0143549D02*
X0146149D01*
X0149149D02*
X0158849D01*
X0132849Y0268292D02*
X0140649D01*
X0143549D02*
X0146049D01*
X0149049D02*
X0158949D01*
X0132849Y0268192D02*
X0140649D01*
X0143549D02*
X0145949D01*
X0148949D02*
X0158949D01*
X0132749Y0268092D02*
X0140749D01*
X0143549D02*
X0145949D01*
X0148949D02*
X0158949D01*
X0132849Y0267992D02*
X0140649D01*
X0143549D02*
X0145849D01*
X0148849D02*
X0158949D01*
X0132749Y0267892D02*
X0140649D01*
X0143549D02*
X0145749D01*
X0148749D02*
X0159049D01*
X0132749Y0267792D02*
X0140749D01*
X0143549D02*
X0145749D01*
X0148649D02*
X0148749D01*
X0148849D02*
X0159049D01*
X0132749Y0267692D02*
X0140649D01*
X0143549D02*
X0145649D01*
X0148749D02*
X0159049D01*
X0132749Y0267592D02*
X0140649D01*
X0143549D02*
X0145549D01*
X0148549D02*
X0159049D01*
X0132749Y0267492D02*
X0140649D01*
X0143549D02*
X0145549D01*
X0148649D02*
X0159049D01*
X0132649Y0267392D02*
X0140749D01*
X0143549D02*
X0145449D01*
X0148449D02*
X0159149D01*
X0132749Y0267292D02*
X0140649D01*
X0143549D02*
X0145449D01*
X0148349D02*
X0159049D01*
X0132649Y0267192D02*
X0140649D01*
X0143549D02*
X0145449D01*
X0148349D02*
X0159149D01*
X0132649Y0267092D02*
X0140649D01*
X0143549D02*
X0145249D01*
X0148249D02*
X0159149D01*
X0132649Y0266992D02*
X0140749D01*
X0143549D02*
X0145149D01*
X0148249D02*
X0159149D01*
X0132649Y0266892D02*
X0140649D01*
X0143549D02*
X0145249D01*
X0148049D02*
X0148149D01*
X0148249D02*
X0159149D01*
X0132649Y0266792D02*
X0140749D01*
X0143549D02*
X0145049D01*
X0148049D02*
X0159149D01*
X0132649Y0266692D02*
X0140649D01*
X0143549D02*
X0144949D01*
X0148049D02*
X0159149D01*
X0132549Y0266592D02*
X0140649D01*
X0143549D02*
X0145049D01*
X0147949D02*
X0159249D01*
X0132649Y0266492D02*
X0140749D01*
X0143549D02*
X0144849D01*
X0147849D02*
X0159149D01*
X0132549Y0266392D02*
X0140649D01*
X0143549D02*
X0144849D01*
X0147849D02*
X0159149D01*
X0132649Y0266292D02*
X0140649D01*
X0143549D02*
X0144749D01*
X0147749D02*
X0159249D01*
X0132549Y0266192D02*
X0140749D01*
X0143549D02*
X0144749D01*
X0147649D02*
X0159249D01*
X0132549Y0266092D02*
X0140649D01*
X0143549D02*
X0144649D01*
X0147649D02*
X0159249D01*
X0132549Y0265992D02*
X0140649D01*
X0143549D02*
X0144549D01*
X0147549D02*
X0159249D01*
X0132549Y0265892D02*
X0140649D01*
X0143549D02*
X0144549D01*
X0147549D02*
X0159249D01*
X0132549Y0265792D02*
X0140749D01*
X0143549D02*
X0144449D01*
X0147449D02*
X0159249D01*
X0132549Y0265692D02*
X0140649D01*
X0143549D02*
X0144449D01*
X0147349D02*
X0159249D01*
X0132549Y0265592D02*
X0140649D01*
X0143549D02*
X0144449D01*
X0147249D02*
X0159349D01*
X0132549Y0265492D02*
X0140649D01*
X0143549D02*
X0144349D01*
X0147349D02*
X0159249D01*
X0132549Y0265392D02*
X0140749D01*
X0143549D02*
X0144449D01*
X0147449D02*
X0159249D01*
X0132549Y0265292D02*
X0140649D01*
X0143549D02*
X0144449D01*
X0147449D02*
X0159249D01*
X0132549Y0265192D02*
X0140749D01*
X0143549D02*
X0144549D01*
X0147549D02*
X0159249D01*
X0132549Y0265092D02*
X0140649D01*
X0143549D02*
X0144549D01*
X0147649D02*
X0159349D01*
X0132549Y0264992D02*
X0140649D01*
X0143549D02*
X0144549D01*
X0147649D02*
X0159249D01*
X0132549Y0264892D02*
X0140749D01*
X0143549D02*
X0144749D01*
X0147749D02*
X0159249D01*
X0132549Y0264792D02*
X0140649D01*
X0143549D02*
X0144649D01*
X0144749D02*
X0144849D01*
X0147849D02*
X0159249D01*
X0132549Y0264692D02*
X0140649D01*
X0143549D02*
X0144749D01*
X0147849D02*
X0159249D01*
X0132549Y0264592D02*
X0140749D01*
X0143549D02*
X0144949D01*
X0147949D02*
X0159249D01*
X0132549Y0264492D02*
X0140649D01*
X0143549D02*
X0144849D01*
X0144949D02*
X0145049D01*
X0148049D02*
X0159249D01*
X0132649Y0264392D02*
X0140649D01*
X0143549D02*
X0145049D01*
X0148049D02*
X0159249D01*
X0132549Y0264292D02*
X0140649D01*
X0143549D02*
X0145149D01*
X0148149D02*
X0159249D01*
X0132549Y0264192D02*
X0140749D01*
X0143549D02*
X0145149D01*
X0148249D02*
X0159149D01*
X0132649Y0264092D02*
X0140649D01*
X0143549D02*
X0145249D01*
X0148249D02*
X0159149D01*
X0132649Y0263992D02*
X0140649D01*
X0143549D02*
X0145349D01*
X0148349D02*
X0159149D01*
X0132549Y0263892D02*
X0140649D01*
X0143549D02*
X0145249D01*
X0145349D02*
X0145449D01*
X0148449D02*
X0159149D01*
X0132649Y0263792D02*
X0140749D01*
X0143549D02*
X0145349D01*
X0148449D02*
X0159149D01*
X0132649Y0263692D02*
X0140649D01*
X0143549D02*
X0145449D01*
X0148549D02*
X0159149D01*
X0132649Y0263592D02*
X0140749D01*
X0143549D02*
X0145549D01*
X0148549D02*
X0159149D01*
X0132649Y0263492D02*
X0140649D01*
X0143549D02*
X0145649D01*
X0148749D02*
X0159149D01*
X0132649Y0263392D02*
X0140649D01*
X0143549D02*
X0145649D01*
X0148649D02*
X0159149D01*
X0132749Y0263292D02*
X0140749D01*
X0143549D02*
X0145749D01*
X0148849D02*
X0159049D01*
X0132749Y0263192D02*
X0140649D01*
X0143549D02*
X0145749D01*
X0148849D02*
X0159049D01*
X0132749Y0263092D02*
X0140649D01*
X0143549D02*
X0145949D01*
X0148849D02*
X0148949D01*
X0149049D02*
X0159149D01*
X0132749Y0262992D02*
X0140749D01*
X0143549D02*
X0145849D01*
X0149049D02*
X0159049D01*
X0132749Y0262892D02*
X0140649D01*
X0143549D02*
X0146049D01*
X0149149D02*
X0159049D01*
X0132749Y0262792D02*
X0140649D01*
X0143549D02*
X0145949D01*
X0146049D02*
X0146149D01*
X0149049D02*
X0159049D01*
X0132849Y0262692D02*
X0140649D01*
X0143549D02*
X0146149D01*
X0149249D02*
X0159049D01*
X0132849Y0262592D02*
X0140749D01*
X0143549D02*
X0146149D01*
X0149349D02*
X0158949D01*
X0132749Y0262492D02*
X0140649D01*
X0143549D02*
X0146249D01*
X0149249D02*
X0158949D01*
X0132849Y0262392D02*
X0140649D01*
X0143549D02*
X0146349D01*
X0149349D02*
X0158949D01*
X0132849Y0262292D02*
X0140649D01*
X0143549D02*
X0146349D01*
X0149549D02*
X0158949D01*
X0132849Y0262192D02*
X0140749D01*
X0143549D02*
X0146449D01*
X0149449D02*
X0158849D01*
X0132949Y0262092D02*
X0140649D01*
X0143549D02*
X0146549D01*
X0149649D02*
X0158949D01*
X0132949Y0261992D02*
X0140749D01*
X0143549D02*
X0146549D01*
X0149649D02*
X0158849D01*
X0132949Y0261892D02*
X0140649D01*
X0143549D02*
X0146649D01*
X0149749D02*
X0158849D01*
X0133049Y0261792D02*
X0140649D01*
X0143549D02*
X0146749D01*
X0149849D02*
X0158749D01*
X0133049Y0261692D02*
X0140749D01*
X0143549D02*
X0146749D01*
X0149849D02*
X0158749D01*
X0133049Y0261592D02*
X0140649D01*
X0143549D02*
X0146849D01*
X0149949D02*
X0158749D01*
X0133149Y0261492D02*
X0140649D01*
X0143549D02*
X0146949D01*
X0150049D02*
X0158649D01*
X0133049Y0261392D02*
X0140749D01*
X0143549D02*
X0146849D01*
X0150049D02*
X0158749D01*
X0133149Y0261292D02*
X0140649D01*
X0143549D02*
X0147049D01*
X0150149D02*
X0158649D01*
X0133249Y0261192D02*
X0140649D01*
X0143549D02*
X0147049D01*
X0150149D02*
X0158649D01*
X0133249Y0261092D02*
X0140749D01*
X0143549D02*
X0147149D01*
X0150349D02*
X0158549D01*
X0133249Y0260992D02*
X0140649D01*
X0143549D02*
X0147249D01*
X0150249D02*
X0158549D01*
X0133249Y0260892D02*
X0140649D01*
X0143549D02*
X0147349D01*
X0150449D02*
X0158449D01*
X0133349Y0260792D02*
X0140649D01*
X0143549D02*
X0147349D01*
X0150449D02*
X0158449D01*
X0133349Y0260692D02*
X0140649D01*
X0143549D02*
X0147349D01*
X0150449D02*
X0150549D01*
X0150649D02*
X0158449D01*
X0133349Y0260592D02*
X0140749D01*
X0143549D02*
X0147549D01*
X0150649D02*
X0158349D01*
X0133449Y0260492D02*
X0140649D01*
X0143549D02*
X0147549D01*
X0150649D02*
X0158449D01*
X0133449Y0260392D02*
X0140649D01*
X0143549D02*
X0147549D01*
X0150749D02*
X0158349D01*
X0133549Y0260292D02*
X0140649D01*
X0143549D02*
X0147749D01*
X0150749D02*
X0158249D01*
X0133549Y0260192D02*
X0140749D01*
X0143549D02*
X0147749D01*
X0150949D02*
X0158249D01*
X0133549Y0260092D02*
X0140649D01*
X0143549D02*
X0147749D01*
X0150949D02*
X0158249D01*
X0133649Y0259992D02*
X0140749D01*
X0143549D02*
X0147949D01*
X0151049D02*
X0158149D01*
X0133649Y0259892D02*
X0140649D01*
X0143549D02*
X0147849D01*
X0151049D02*
X0158149D01*
X0133649Y0259792D02*
X0140649D01*
X0143549D02*
X0148049D01*
X0151149D02*
X0158149D01*
X0133749Y0259692D02*
X0140749D01*
X0143549D02*
X0147949D01*
X0151249D02*
X0158049D01*
X0133749Y0259592D02*
X0140649D01*
X0143549D02*
X0148049D01*
X0151249D02*
X0158049D01*
X0133849Y0259492D02*
X0140649D01*
X0143549D02*
X0148249D01*
X0151349D02*
X0157949D01*
X0133949Y0259392D02*
X0140749D01*
X0143549D02*
X0148349D01*
X0151349D02*
X0157849D01*
X0133949Y0259292D02*
X0140649D01*
X0143549D02*
X0148249D01*
X0151449D02*
X0157849D01*
X0133949Y0259192D02*
X0140649D01*
X0143549D02*
X0148349D01*
X0151549D02*
X0157849D01*
X0134049Y0259092D02*
X0140649D01*
X0143549D02*
X0148449D01*
X0151649D02*
X0157749D01*
X0134149Y0258992D02*
X0140749D01*
X0143549D02*
X0148549D01*
X0151649D02*
X0157649D01*
X0134149Y0258892D02*
X0140649D01*
X0143549D02*
X0148549D01*
X0151749D02*
X0157649D01*
X0134149Y0258792D02*
X0140649D01*
X0143549D02*
X0148649D01*
X0151749D02*
X0157549D01*
X0134349Y0258692D02*
X0140749D01*
X0143549D02*
X0148749D01*
X0151849D02*
X0157549D01*
X0134349Y0258592D02*
X0140749D01*
X0143549D02*
X0148749D01*
X0151849D02*
X0157449D01*
X0134349Y0258492D02*
X0140849D01*
X0143449D02*
X0149049D01*
X0151749D02*
X0157449D01*
X0134449Y0258392D02*
X0140949D01*
X0143249D02*
X0149149D01*
X0151649D02*
X0157449D01*
X0134549Y0258292D02*
X0157249D01*
X0134549Y0258192D02*
X0157249D01*
X0134649Y0258092D02*
X0157149D01*
X0134749Y0257992D02*
X0157049D01*
X0134749Y0257892D02*
X0157049D01*
X0134749Y0257792D02*
X0157049D01*
X0134949Y0257692D02*
X0156849D01*
X0134949Y0257592D02*
X0156849D01*
X0134949Y0257492D02*
X0156749D01*
X0135149Y0257392D02*
X0156649D01*
X0135149Y0257292D02*
X0156649D01*
X0135249Y0257192D02*
X0156549D01*
X0135349Y0257092D02*
X0156449D01*
X0135449Y0256992D02*
X0156349D01*
X0135549Y0256892D02*
X0156349D01*
X0135549Y0256792D02*
X0156249D01*
X0135649Y0256692D02*
X0156149D01*
X0135749Y0256592D02*
X0156049D01*
X0135749Y0256492D02*
X0155949D01*
X0135949Y0256392D02*
X0155849D01*
X0136049Y0256292D02*
X0155749D01*
X0136149Y0256192D02*
X0155749D01*
X0136149Y0256092D02*
X0155549D01*
X0136349Y0255992D02*
X0155549D01*
X0136349Y0255892D02*
X0155449D01*
X0136549Y0255792D02*
X0155349D01*
X0136549Y0255692D02*
X0155149D01*
X0136749Y0255592D02*
X0155049D01*
X0136749Y0255492D02*
X0154949D01*
X0136949Y0255392D02*
X0154949D01*
X0136949Y0255292D02*
X0154749D01*
X0137149Y0255192D02*
X0154649D01*
X0137249Y0255092D02*
X0154549D01*
X0137349Y0254992D02*
X0154449D01*
X0137549Y0254892D02*
X0154249D01*
X0137649Y0254792D02*
X0154249D01*
X0137749Y0254692D02*
X0154049D01*
X0137849Y0254592D02*
X0153949D01*
X0138049Y0254492D02*
X0153749D01*
X0138149Y0254392D02*
X0153549D01*
X0138349Y0254292D02*
X0153549D01*
X0138349Y0254192D02*
X0153349D01*
X0138649Y0254092D02*
X0153249D01*
X0138749Y0253992D02*
X0153049D01*
X0138949Y0253892D02*
X0152849D01*
X0139149Y0253792D02*
X0152749D01*
X0139249Y0253692D02*
X0152549D01*
X0139349Y0253592D02*
X0152349D01*
X0139649Y0253492D02*
X0152149D01*
X0139749Y0253392D02*
X0152049D01*
X0140049Y0253292D02*
X0151849D01*
X0140149Y0253192D02*
X0151549D01*
X0140449Y0253092D02*
X0151349D01*
X0140549Y0252992D02*
X0140649D01*
X0140749D02*
X0151149D01*
X0140849Y0252892D02*
X0150949D01*
X0141249Y0252792D02*
X0150649D01*
X0141349Y0252692D02*
X0141449D01*
X0141549D02*
X0150349D01*
X0141749Y0252592D02*
X0150049D01*
X0142149Y0252492D02*
X0149649D01*
X0149749D02*
X0149849D01*
X0142349Y0252392D02*
X0142449D01*
X0142549D02*
X0149349D01*
X0142849Y0252292D02*
X0148949D01*
X0143249Y0252192D02*
X0148549D01*
X0143949Y0252092D02*
X0147849D01*
X0147949D02*
X0148049D01*
X0144449Y0251992D02*
X0144549D01*
X0144649D02*
X0144749D01*
X0144849D02*
X0146949D01*
X0147149D02*
X0147249D01*
X0145649Y0251892D02*
X0145749D01*
D42*
X0170917Y0199000D02*
X0182335D01*
X0170917Y0202150D02*
X0182335D01*
X0170917Y0199000D02*
Y0202150D01*
X0182335Y0199000D02*
Y0202150D01*
X0135524Y0234236D02*
Y0245654D01*
X0138673Y0234236D02*
Y0245654D01*
X0135524D02*
X0138673D01*
X0135524Y0234236D02*
X0138673D01*
D43*
X0020130Y0234647D02*
Y0240944D01*
X0024328Y0234647D01*
Y0240944D01*
X0027477Y0234647D02*
X0029576D01*
X0030625Y0235697D01*
Y0237796D01*
X0029576Y0238845D01*
X0027477D01*
X0026427Y0237796D01*
Y0235697D01*
X0027477Y0234647D01*
X0032724Y0238845D02*
X0033774D01*
Y0237796D01*
X0032724D01*
Y0238845D01*
Y0235697D02*
X0033774D01*
Y0234647D01*
X0032724D01*
Y0235697D01*
X0019736Y0252248D02*
X0021835Y0248050D01*
X0023934Y0252248D01*
X0026033Y0253298D02*
X0027083Y0254347D01*
X0029182D01*
X0030231Y0253298D01*
Y0249100D01*
X0029182Y0248050D01*
X0027083D01*
X0026033Y0249100D01*
Y0253298D01*
X0032331Y0248050D02*
Y0249100D01*
X0033380D01*
Y0248050D01*
X0032331D01*
X0041776D02*
X0037578D01*
X0041776Y0252248D01*
Y0253298D01*
X0040727Y0254347D01*
X0038628D01*
X0037578Y0253298D01*
X0160262Y0137221D02*
Y0130924D01*
Y0133023D01*
X0164460Y0137221D01*
X0161312Y0134073D01*
X0164460Y0130924D01*
X0167609D02*
X0169708D01*
X0170757Y0131974D01*
Y0134073D01*
X0169708Y0135122D01*
X0167609D01*
X0166559Y0134073D01*
Y0131974D01*
X0167609Y0130924D01*
X0172856Y0135122D02*
Y0130924D01*
Y0133023D01*
X0173906Y0134073D01*
X0174955Y0135122D01*
X0176005D01*
X0179154D02*
Y0131974D01*
X0180203Y0130924D01*
X0183352D01*
Y0135122D01*
X0185451D02*
X0189649D01*
X0185451Y0130924D01*
X0189649D01*
X0192798Y0135122D02*
X0194897D01*
X0195946Y0134073D01*
Y0130924D01*
X0192798D01*
X0191748Y0131974D01*
X0192798Y0133023D01*
X0195946D01*
X0166559Y0119588D02*
Y0125885D01*
X0168658Y0123786D01*
X0170757Y0125885D01*
Y0119588D01*
X0173906D02*
X0176005D01*
X0177055Y0120638D01*
Y0122737D01*
X0176005Y0123786D01*
X0173906D01*
X0172856Y0122737D01*
Y0120638D01*
X0173906Y0119588D01*
X0179154Y0123786D02*
X0181253Y0119588D01*
X0183352Y0123786D01*
X0188599Y0119588D02*
X0186500D01*
X0185451Y0120638D01*
Y0122737D01*
X0186500Y0123786D01*
X0188599D01*
X0189649Y0122737D01*
Y0121687D01*
X0185451D01*
X0161312Y0114549D02*
Y0108252D01*
X0164460D01*
X0165510Y0109301D01*
Y0113500D01*
X0164460Y0114549D01*
X0161312D01*
X0167609Y0112450D02*
Y0108252D01*
Y0110351D01*
X0168658Y0111400D01*
X0169708Y0112450D01*
X0170757D01*
X0173906Y0108252D02*
X0176005D01*
X0174955D01*
Y0112450D01*
X0173906D01*
X0179154D02*
X0181253Y0108252D01*
X0183352Y0112450D01*
X0188599Y0108252D02*
X0186500D01*
X0185451Y0109301D01*
Y0111400D01*
X0186500Y0112450D01*
X0188599D01*
X0189649Y0111400D01*
Y0110351D01*
X0185451D01*
X0191748Y0112450D02*
Y0108252D01*
Y0110351D01*
X0192798Y0111400D01*
X0193847Y0112450D01*
X0194897D01*
X0019736Y0265715D02*
Y0262567D01*
X0020786Y0261517D01*
X0021835Y0262567D01*
X0022885Y0261517D01*
X0023934Y0262567D01*
Y0265715D01*
X0026033D02*
Y0262567D01*
X0027083Y0261517D01*
X0028132Y0262567D01*
X0029182Y0261517D01*
X0030231Y0262567D01*
Y0265715D01*
X0032331D02*
Y0262567D01*
X0033380Y0261517D01*
X0034430Y0262567D01*
X0035479Y0261517D01*
X0036529Y0262567D01*
Y0265715D01*
X0038628Y0261517D02*
Y0262567D01*
X0039677D01*
Y0261517D01*
X0038628D01*
X0043875D02*
Y0267814D01*
Y0263616D02*
X0047024Y0265715D01*
X0043875Y0263616D02*
X0047024Y0261517D01*
X0051222D02*
X0053321D01*
X0054371Y0262567D01*
Y0264666D01*
X0053321Y0265715D01*
X0051222D01*
X0050173Y0264666D01*
Y0262567D01*
X0051222Y0261517D01*
X0056470Y0265715D02*
Y0261517D01*
Y0263616D01*
X0057519Y0264666D01*
X0058569Y0265715D01*
X0059618D01*
X0062767D02*
Y0262567D01*
X0063816Y0261517D01*
X0066965D01*
Y0265715D01*
X0069064D02*
X0073262D01*
X0069064Y0261517D01*
X0073262D01*
X0076411Y0265715D02*
X0078510D01*
X0079559Y0264666D01*
Y0261517D01*
X0076411D01*
X0075361Y0262567D01*
X0076411Y0263616D01*
X0079559D01*
X0081658Y0261517D02*
Y0262567D01*
X0082708D01*
Y0261517D01*
X0081658D01*
X0086906D02*
Y0265715D01*
X0090055D01*
X0091104Y0264666D01*
Y0261517D01*
X0096352D02*
X0094253D01*
X0093203Y0262567D01*
Y0264666D01*
X0094253Y0265715D01*
X0096352D01*
X0097401Y0264666D01*
Y0263616D01*
X0093203D01*
X0100550Y0266765D02*
Y0265715D01*
X0099500D01*
X0101599D01*
X0100550D01*
Y0262567D01*
X0101599Y0261517D01*
D44*
X0052709Y0237878D02*
D03*
M02*
