G04 Layer_Color=16711935*
%FSAX25Y25*%
%MOIN*%
G70*
G01*
G75*
%ADD69C,0.00394*%
D69*
X0193585Y0248138D02*
X0197473Y0247002D01*
X0201223Y0245472D01*
X0204796Y0243565D01*
X0208155Y0241302D01*
X0211263Y0238705D01*
X0214088Y0235803D01*
X0216599Y0232626D01*
X0218772Y0229207D01*
X0220581Y0225584D01*
X0222008Y0221794D01*
X0223039Y0217877D01*
X0223662Y0213875D01*
X0223870Y0209830D01*
Y0078527D02*
Y0209830D01*
X0133319Y0078527D02*
X0223870D01*
X0133319D02*
Y0137583D01*
X0133117Y0142459D02*
X0133319Y0137583D01*
X0132513Y0147303D02*
X0133117Y0142459D01*
X0131512Y0152080D02*
X0132513Y0147303D01*
X0130119Y0156758D02*
X0131512Y0152080D01*
X0128345Y0161305D02*
X0130119Y0156758D01*
X0126201Y0165690D02*
X0128345Y0161305D01*
X0123703Y0169883D02*
X0126201Y0165690D01*
X0120867Y0173855D02*
X0123703Y0169883D01*
X0117712Y0177580D02*
X0120867Y0173855D01*
X0114261Y0181031D02*
X0117712Y0177580D01*
X0110536Y0184185D02*
X0114261Y0181031D01*
X0106564Y0187022D02*
X0110536Y0184185D01*
X0102371Y0189520D02*
X0106564Y0187022D01*
X0097986Y0191664D02*
X0102371Y0189520D01*
X0093439Y0193438D02*
X0097986Y0191664D01*
X0088761Y0194831D02*
X0093439Y0193438D01*
X0083984Y0195832D02*
X0088761Y0194831D01*
X0079141Y0196436D02*
X0083984Y0195832D01*
X0074264Y0196638D02*
X0079141Y0196436D01*
X0015209Y0196638D02*
X0074264D01*
X0015209D02*
Y0287189D01*
X0146511D01*
X0150556Y0286981D01*
X0154558Y0286358D01*
X0158475Y0285327D01*
X0162265Y0283900D01*
X0165888Y0282090D01*
X0169307Y0279918D01*
X0172484Y0277407D01*
X0175386Y0274582D01*
X0177983Y0271474D01*
X0180247Y0268115D01*
X0182153Y0264542D01*
X0183683Y0260792D01*
X0184819Y0256904D01*
X0185512Y0254846D01*
X0186571Y0252949D01*
X0187959Y0251278D01*
X0189630Y0249890D01*
X0191527Y0248831D01*
X0193585Y0248138D01*
M02*
